<mxfile host="app.diagrams.net" modified="2024-03-03T04:22:36.988Z" agent="Mozilla/5.0 (Windows NT 10.0; Win64; x64) AppleWebKit/537.36 (KHTML, like Gecko) Chrome/122.0.0.0 Safari/537.36" etag="htw5lJxNLe-SFXtxXin6" version="24.0.1" type="github">
  <diagram name="第 1 页" id="M-xRGmmr_s7m8dLj8DHr">
    <mxGraphModel dx="1914" dy="1158" grid="1" gridSize="10" guides="1" tooltips="1" connect="1" arrows="1" fold="1" page="1" pageScale="1" pageWidth="480" pageHeight="420" math="0" shadow="0">
      <root>
        <mxCell id="0" />
        <mxCell id="1" parent="0" />
        <mxCell id="vbO2CsJakfCkqvdoRr9B-1" value="Version(版本)&lt;div&gt;4 bit&lt;/div&gt;" style="rounded=1;whiteSpace=wrap;html=1;fillColor=#fff2cc;strokeColor=#d6b656;strokeWidth=2;gradientColor=#ffd966;" parent="1" vertex="1">
          <mxGeometry width="120" height="60" as="geometry" />
        </mxCell>
        <mxCell id="vbO2CsJakfCkqvdoRr9B-2" value="Total Length&lt;div&gt;16 bit&lt;/div&gt;" style="rounded=1;whiteSpace=wrap;html=1;fillColor=#fff2cc;strokeColor=#d6b656;strokeWidth=2;gradientColor=#ffd966;" parent="1" vertex="1">
          <mxGeometry x="480" width="480" height="60" as="geometry" />
        </mxCell>
        <mxCell id="vbO2CsJakfCkqvdoRr9B-3" value="Identification&lt;div&gt;16 bit&lt;/div&gt;" style="rounded=1;whiteSpace=wrap;html=1;fillColor=#ffcd28;strokeColor=#d79b00;strokeWidth=2;gradientColor=#ffa500;" parent="1" vertex="1">
          <mxGeometry y="60" width="480" height="60" as="geometry" />
        </mxCell>
        <mxCell id="vbO2CsJakfCkqvdoRr9B-4" value="IHL&lt;div&gt;4 bit&lt;/div&gt;" style="rounded=1;whiteSpace=wrap;html=1;fillColor=#fff2cc;strokeColor=#d6b656;strokeWidth=2;gradientColor=#ffd966;" parent="1" vertex="1">
          <mxGeometry x="120" width="120" height="60" as="geometry" />
        </mxCell>
        <mxCell id="vbO2CsJakfCkqvdoRr9B-5" value="&lt;div&gt;DSCP&lt;/div&gt;&lt;div&gt;6 bit&lt;/div&gt;" style="rounded=1;whiteSpace=wrap;html=1;fillColor=#fff2cc;strokeColor=#d6b656;strokeWidth=2;gradientColor=#ffd966;" parent="1" vertex="1">
          <mxGeometry x="240" width="180" height="60" as="geometry" />
        </mxCell>
        <mxCell id="vbO2CsJakfCkqvdoRr9B-6" value="&lt;div&gt;ECN&lt;/div&gt;&lt;div&gt;2 bit&lt;/div&gt;" style="rounded=1;whiteSpace=wrap;html=1;fillColor=#fff2cc;strokeColor=#d6b656;strokeWidth=2;gradientColor=#ffd966;" parent="1" vertex="1">
          <mxGeometry x="420" width="60" height="60" as="geometry" />
        </mxCell>
        <mxCell id="vbO2CsJakfCkqvdoRr9B-7" value="&lt;div&gt;Fragment Offset&lt;/div&gt;&lt;div&gt;13 bit&lt;/div&gt;" style="rounded=1;whiteSpace=wrap;html=1;fillColor=#ffcd28;strokeColor=#d79b00;strokeWidth=2;gradientColor=#ffa500;" parent="1" vertex="1">
          <mxGeometry x="570" y="60" width="390" height="60" as="geometry" />
        </mxCell>
        <mxCell id="vbO2CsJakfCkqvdoRr9B-8" value="&lt;div&gt;Flags&lt;/div&gt;&lt;div&gt;3 bit&lt;/div&gt;" style="rounded=1;whiteSpace=wrap;html=1;fillColor=#ffcd28;strokeColor=#d79b00;strokeWidth=2;gradientColor=#ffa500;" parent="1" vertex="1">
          <mxGeometry x="480" y="60" width="90" height="60" as="geometry" />
        </mxCell>
        <mxCell id="vbO2CsJakfCkqvdoRr9B-9" value="Total Length&lt;div&gt;16 bit&lt;/div&gt;" style="rounded=1;whiteSpace=wrap;html=1;fillColor=#dae8fc;strokeColor=#6c8ebf;strokeWidth=2;gradientColor=#7ea6e0;" parent="1" vertex="1">
          <mxGeometry x="480" y="120" width="480" height="60" as="geometry" />
        </mxCell>
        <mxCell id="vbO2CsJakfCkqvdoRr9B-10" value="Time To Live&lt;div&gt;8 bit&lt;/div&gt;" style="rounded=1;whiteSpace=wrap;html=1;fillColor=#dae8fc;strokeColor=#6c8ebf;strokeWidth=2;gradientColor=#7ea6e0;" parent="1" vertex="1">
          <mxGeometry y="120" width="240" height="60" as="geometry" />
        </mxCell>
        <mxCell id="vbO2CsJakfCkqvdoRr9B-11" value="Protocol&lt;div&gt;8 bit&lt;/div&gt;" style="rounded=1;whiteSpace=wrap;html=1;fillColor=#dae8fc;strokeColor=#6c8ebf;strokeWidth=2;gradientColor=#7ea6e0;" parent="1" vertex="1">
          <mxGeometry x="240" y="120" width="240" height="60" as="geometry" />
        </mxCell>
        <mxCell id="vbO2CsJakfCkqvdoRr9B-12" value="Source Address&lt;div&gt;32 bit&lt;/div&gt;" style="rounded=1;whiteSpace=wrap;html=1;fillColor=#dae8fc;strokeColor=#6c8ebf;strokeWidth=2;gradientColor=#7ea6e0;" parent="1" vertex="1">
          <mxGeometry y="180" width="960" height="60" as="geometry" />
        </mxCell>
        <mxCell id="vbO2CsJakfCkqvdoRr9B-13" value="Destination Address&lt;div&gt;32 bit&lt;/div&gt;" style="rounded=1;whiteSpace=wrap;html=1;fillColor=#dae8fc;strokeColor=#6c8ebf;strokeWidth=2;gradientColor=#7ea6e0;" parent="1" vertex="1">
          <mxGeometry y="240" width="960" height="60" as="geometry" />
        </mxCell>
        <mxCell id="vbO2CsJakfCkqvdoRr9B-14" value="Options" style="rounded=1;whiteSpace=wrap;html=1;strokeWidth=2;strokeColor=#000000;" parent="1" vertex="1">
          <mxGeometry y="300" width="960" height="60" as="geometry" />
        </mxCell>
        <mxCell id="vbO2CsJakfCkqvdoRr9B-15" value="Payload(数据)" style="rounded=1;whiteSpace=wrap;html=1;dashed=1;strokeWidth=2;strokeColor=#000000;" parent="1" vertex="1">
          <mxGeometry y="360" width="960" height="60" as="geometry" />
        </mxCell>
      </root>
    </mxGraphModel>
  </diagram>
</mxfile>
